<svg width="180" height="55" viewBox="0 0 180 55" fill="none" xmlns="http://www.w3.org/2000/svg">
<g clip-path="url(#clip0_18_73)">
<path d="M73.9761 54.7633C80.1707 54.7633 83.3932 51.1876 84.867 47.9866H85.3165V54.1382H95.808V2.92582H85.1915V22.1804H84.867C83.4431 19.0548 80.3706 15.2287 73.951 15.2287C65.5332 15.2287 58.4142 21.7806 58.4142 34.9837C58.4142 47.8368 65.2333 54.7633 73.9761 54.7633ZM77.3485 46.2862C72.1277 46.2862 69.2798 41.635 69.2798 34.9334C69.2798 28.2819 72.0775 23.7059 77.3485 23.7059C82.5191 23.7059 85.4166 28.0817 85.4166 34.9334C85.4166 41.785 82.4688 46.2862 77.3485 46.2862ZM103.15 54.1382H113.791V15.7286H103.15V54.1382ZM108.495 10.7778C111.668 10.7778 114.265 8.35195 114.265 5.37634C114.265 2.42587 111.668 0 108.495 0C105.348 0 102.75 2.42587 102.75 5.37634C102.75 8.35195 105.348 10.7778 108.495 10.7778ZM138.393 54.888C147.885 54.888 154.28 50.2621 155.779 43.1354L145.937 42.4851C144.863 45.4109 142.115 46.9365 138.568 46.9365C133.248 46.9365 129.876 43.4106 129.876 37.6842V37.6591H156.004V34.7332C156.004 21.6805 148.11 15.2287 137.969 15.2287C126.679 15.2287 119.36 23.2557 119.36 35.1083C119.36 47.2864 126.579 54.888 138.393 54.888ZM129.876 31.0574C130.101 26.6814 133.423 23.1809 138.144 23.1809C142.765 23.1809 145.962 26.4812 145.987 31.0574H129.876ZM172.182 2.92582H161.541V54.1382H172.182V2.92582Z" fill="black"/>
<path d="M177.732 54.3193C178.801 54.3193 179.666 53.4541 179.666 52.3857C179.666 51.317 178.801 50.4515 177.732 50.4515C176.664 50.4515 175.799 51.317 175.799 52.3857C175.799 53.4541 176.664 54.3193 177.732 54.3193ZM177.732 53.959C176.862 53.959 176.159 53.2556 176.159 52.3857C176.159 51.5152 176.862 50.8119 177.732 50.8119C178.603 50.8119 179.306 51.5152 179.306 52.3857C179.306 53.2556 178.603 53.959 177.732 53.959ZM177.077 53.2556H177.389V52.615H177.88L178.213 53.2556H178.562L178.182 52.5474C178.356 52.4557 178.489 52.2744 178.489 52.0302C178.489 51.6676 178.201 51.4716 177.933 51.4716H177.077V53.2556ZM177.389 52.371V51.716H177.839C177.994 51.716 178.151 51.8052 178.151 52.0302C178.151 52.2502 177.996 52.371 177.832 52.371H177.389Z" fill="white"/>
<path fill-rule="evenodd" clip-rule="evenodd" d="M30.2218 2.99396H19.7432V19.8504L5.23932 11.4766L0 20.5513L14.5479 28.9507L0.0333614 37.3307L5.27267 46.4053L19.7432 38.0508V54.888H30.2218V37.9999L44.9416 46.4985L50.1809 37.4237L35.5053 28.9507L50.2143 20.4584L44.975 11.3836L30.2218 19.9014V2.99396Z" fill="url(#paint0_linear_18_73)"/>
</g>
<defs>
<linearGradient id="paint0_linear_18_73" x1="25.1071" y1="3.66668" x2="25.1071" y2="55" gradientUnits="userSpaceOnUse">
<stop stop-color="#363BC4"/>
<stop offset="1" stop-color="#00FF9B"/>
</linearGradient>
<clipPath id="clip0_18_73">
<rect width="179.667" height="55" fill="white"/>
</clipPath>
</defs>
</svg>
